<svg width="259" height="49" viewBox="0 0 259 49" fill="none" xmlns="http://www.w3.org/2000/svg">
<path d="M17.0083 0.410744L17.0062 0.411068C10.4353 1.45006 4.27318 6.42762 1.71469 12.7817L1.71432 12.7826C-0.505209 18.2331 -0.198998 23.9918 2.61556 29.5093C3.70992 31.5856 4.46106 32.5909 7.15494 35.3415L7.15496 35.3415L7.15724 35.3439C8.03614 36.2653 8.89295 37.1008 9.55688 37.7047C9.88926 38.007 10.1707 38.2489 10.3809 38.4139C10.4866 38.4968 10.5701 38.557 10.6308 38.5953C10.6342 38.5974 10.6375 38.5995 10.6407 38.6015C10.6928 38.5659 10.7645 38.511 10.8554 38.4363C11.0405 38.284 11.2888 38.0631 11.5808 37.7925C12.164 37.2522 12.9113 36.5236 13.6552 35.7744C14.3991 35.0251 15.1375 34.2574 15.7033 33.639C15.9865 33.3295 16.2246 33.0594 16.398 32.8486C16.4848 32.7431 16.5534 32.6549 16.6027 32.5855C16.6147 32.5687 16.6251 32.5535 16.6342 32.5398C16.61 32.5016 16.5758 32.4519 16.5307 32.3904C16.4076 32.2224 16.2198 31.9882 15.9792 31.7035C15.4992 31.1352 14.8195 30.3775 14.0535 29.569C12.2018 27.6317 11.047 26.2208 10.36 24.8285C9.6679 23.426 9.45888 22.0602 9.45888 20.2313C9.45888 19.0932 9.48679 18.38 9.61689 17.7406C9.74774 17.0976 9.97953 16.5411 10.3646 15.7138L10.3661 15.7108C11.529 13.2977 13.3349 11.4912 15.7213 10.3562L15.7215 10.3561C16.563 9.95671 17.114 9.72392 17.7699 9.59649C18.4198 9.47022 19.1621 9.44958 20.3829 9.44958C21.5756 9.44958 22.3234 9.47033 22.9572 9.58523C23.5996 9.70169 24.1151 9.91285 24.8479 10.2721L24.8497 10.273C27.0044 11.3503 29.1215 13.4674 30.1989 15.6221L30.2006 15.6256C30.5588 16.3708 30.7703 16.8796 30.8867 17.5331C31.0015 18.1775 31.0222 18.9537 31.0222 20.2313C31.0222 21.3583 31.0142 22.2458 30.8503 23.0775C30.6847 23.9182 30.3623 24.6931 29.7491 25.6111C28.5364 27.4264 26.1573 29.8394 21.528 34.4972L13.9052 42.1756L16.9433 45.1868C16.9434 45.1869 16.9435 45.187 16.9437 45.1871C17.8248 46.054 18.6549 46.8486 19.2851 47.4257C19.6006 47.7147 19.8637 47.9469 20.057 48.106C20.1363 48.1712 20.2013 48.2221 20.2519 48.2587C20.2727 48.2413 20.2966 48.2209 20.3235 48.1975C20.446 48.0913 20.6204 47.9326 20.8421 47.7257C21.2849 47.3126 21.9097 46.7136 22.6706 45.9722C24.192 44.4899 26.2545 42.4416 28.488 40.1797L28.4888 40.1788C32.9481 35.7053 35.3537 33.235 36.818 31.3226C38.2691 29.4274 38.792 28.0854 39.4704 25.8525C39.9459 24.2437 40.2001 22.2189 40.2142 20.2153C40.2284 18.2103 40.0019 16.246 39.5286 14.7565L39.5282 14.7553C36.8546 6.19962 29.8557 0.693649 21.0833 0.271564C19.6948 0.214954 17.8368 0.272644 17.0083 0.410744ZM10.6993 38.6331C10.6993 38.633 10.6981 38.6325 10.6958 38.6318C10.6983 38.6328 10.6994 38.6332 10.6993 38.6331ZM10.5857 38.6355C10.5825 38.6367 10.5809 38.6375 10.5809 38.6376C10.5809 38.6377 10.5824 38.6371 10.5857 38.6355ZM20.3425 48.3173C20.3424 48.3171 20.3404 48.3161 20.3368 48.3147C20.3408 48.3167 20.3426 48.3174 20.3425 48.3173Z" fill="#4285F4" stroke="black" stroke-width="0.5"/>
<g filter="url(#filter0_d_10_295)">
<path d="M17.6789 14.083C16.2557 14.7377 14.5763 16.474 13.9785 17.8687C13.0677 20.1174 13.5516 23.0207 15.1456 24.8709C17.935 28.1442 22.347 28.3435 25.3926 25.3832C29.0645 21.7967 27.869 15.9616 23.087 13.9407C21.7208 13.3714 19.0736 13.4283 17.6789 14.083Z" fill="black"/>
<path d="M17.7851 14.3093L17.7833 14.3101C17.1084 14.6206 16.3573 15.1963 15.6982 15.8728C15.0398 16.5486 14.4925 17.3054 14.2093 17.9649C13.3352 20.1257 13.8022 22.9286 15.335 24.7077L15.335 24.7077L15.3358 24.7087C18.0321 27.8726 22.2768 28.0629 25.2183 25.2041C28.7562 21.748 27.6143 16.1258 22.9903 14.1712C22.3525 13.9056 21.3888 13.7783 20.3998 13.8028C19.411 13.8272 18.439 14.0024 17.7851 14.3093Z" stroke="black" stroke-opacity="0.61" stroke-width="0.5"/>
</g>
<path d="M166.9 9.93973C164.386 11.8848 165.904 15.5851 169.177 15.5851C170.363 15.5851 171.075 15.253 171.786 14.3517C172.498 13.4503 173.02 11.5527 171.597 10.1295C170.174 8.70629 168.561 8.61141 166.9 9.93973Z" fill="black"/>
<path d="M213.581 9.70256C210.118 10.6514 209.691 11.1258 211.351 12.3592C212.442 13.1657 212.632 13.6401 212.632 15.6326V18.0046L210.877 17.6251C203.619 16.1544 198.827 20.1394 198.78 27.6349C198.732 34.4188 201.436 38.3089 206.275 38.3564C214.055 38.4513 219.131 38.2615 219.748 37.882C220.317 37.5025 220.317 37.3601 219.606 36.6011C218.894 35.7946 218.799 34.1342 218.704 22.4165L218.562 9.18072L217.376 9.08584C216.712 9.0384 215.004 9.32304 213.581 9.70256ZM212.253 27.7298C212.11 33.5175 211.921 34.8932 211.304 35.3677C208.932 37.2653 205.801 34.7509 205.279 30.6711C204.852 27.2554 205.326 23.6974 206.465 21.8472C207.556 20.0445 210.023 19.1906 211.446 20.0919C212.348 20.6612 212.395 21.0882 212.253 27.7298Z" fill="black"/>
<path d="M59.1158 10.936C58.926 11.2206 59.2107 11.8373 59.78 12.3117C60.7762 13.1182 60.8236 13.4503 60.8236 24.0294C60.8236 30.0543 60.6813 35.2727 60.539 35.6997C60.3967 36.1266 59.9223 36.4587 59.5428 36.4587C59.1632 36.4587 58.926 36.7908 59.0209 37.2652C59.1632 37.9768 59.78 38.1666 62.484 38.2615C66.896 38.4512 69.8373 38.0243 69.8373 37.1229C69.8373 36.7434 69.6475 36.4587 69.4103 36.4587C69.1731 36.4587 68.6038 36.1266 68.2243 35.6997C67.655 35.1304 67.4653 33.897 67.4653 30.2441C67.4653 25.6424 67.4653 25.5475 68.5564 25.5475C69.5526 25.5475 70.1219 26.4014 72.7311 31.7147C75.1031 36.601 75.957 37.9768 76.8584 38.214C78.1393 38.4987 83.073 38.1191 83.5 37.6447C83.6898 37.5024 83.0256 36.6485 82.0768 35.842C80.9382 34.8458 79.4676 32.5686 77.9021 29.3902C76.5738 26.6861 75.5301 24.4564 75.625 24.4089C79.4202 22.1793 80.9857 19.7124 80.6062 16.5813C80.2741 13.7824 77.9495 11.6001 74.5338 10.8885C71.2605 10.1769 59.5428 10.2244 59.1158 10.936ZM72.9209 13.6875C74.7236 15.68 74.6287 20.7561 72.6837 22.3216C72.0195 22.8434 70.8335 23.1755 69.5526 23.1755H67.4653V17.9571V12.7387H69.7424C71.4502 12.7387 72.3041 12.9759 72.9209 13.6875Z" fill="black"/>
<path d="M144.009 10.061C146.735 10.0372 149.462 10.0197 152.188 10.0081C153.116 10.0032 154.044 9.99665 154.972 9.98833C156.304 9.97668 157.635 9.97119 158.967 9.96693C159.592 9.95947 159.592 9.95947 160.229 9.95186C161.246 9.95167 162.262 10.0019 163.276 10.061C164.24 11.0244 164.24 11.0244 164.334 12.5936C164.322 13.2083 164.311 13.823 164.3 14.4563C164.291 15.0735 164.282 15.6907 164.273 16.3266C164.262 16.8022 164.251 17.2778 164.24 17.7679C163.12 17.6644 163.12 17.6644 161.831 17.2862C160.795 15.9328 160.181 14.4901 159.423 12.9511C157.197 12.9511 154.972 12.9511 152.679 12.9511C152.679 16.1301 152.679 19.3092 152.679 22.5846C153.633 22.8231 156.027 22.4892 157 22.7325C161.362 22.7325 157.164 24.3379 157 24.993C156.364 24.993 152.853 24.993 152.198 24.993C152.436 30.4769 152.436 30.4769 152.679 36.0716C155.088 37.9983 154.361 37.7551 155.334 37.9983C155.493 38.4752 154.924 37.507 155.088 37.9983C153.724 38.4528 152.875 38.542 151.462 38.544C151.041 38.5446 150.619 38.5452 150.185 38.5459C149.747 38.544 149.308 38.5421 148.856 38.5402C148.419 38.5421 147.982 38.5439 147.532 38.5459C147.11 38.5452 146.688 38.5446 146.254 38.544C145.869 38.5434 145.485 38.5429 145.089 38.5423C144.009 38.48 144.044 38.7549 143 38.48C148.334 31.9519 142.043 37.8898 141.119 38.48C140.039 38.5778 140.039 38.5778 138.771 38.6004C138.147 38.619 138.147 38.619 137.51 38.6381C136.079 38.4508 135.494 37.907 134.376 37.035C133.098 37.3533 133.098 37.3533 131.967 37.9983C130.181 38.8913 128.136 38.7012 126.187 38.48C124.33 37.5183 123.491 36.8437 122.334 35.1083C122.372 32.7559 122.56 31.6525 123.839 29.6593C126.639 27.0416 129.743 26.6098 133.412 25.9564C133.412 23.89 133.412 21.8236 133.412 19.6946C132.3 19.5356 131.187 19.3767 130.04 19.2129C129.982 19.5091 129.924 19.8052 129.864 20.1104C129.742 20.6944 129.742 20.6944 129.619 21.2901C129.541 21.6757 129.462 22.0613 129.382 22.4586C129.077 23.548 129.077 23.548 128.114 24.993C126.458 25.2038 126.458 25.2038 124.742 24.993C123.779 24.2103 123.779 24.2103 123.297 23.0663C123.331 21.4222 123.57 20.4801 124.501 19.1226C127.326 17.0748 130.47 16.4784 133.894 16.8045C136.17 17.3037 137.43 17.8586 138.921 19.6946C139.992 21.7511 140.214 23.1737 140.203 25.4653C140.201 26.0257 140.2 26.586 140.198 27.1634C140.192 28.0412 140.192 28.0412 140.186 28.9368C140.184 29.5276 140.181 30.1184 140.179 30.7271C140.174 32.1875 140.166 33.6479 140.156 35.1083C141.745 35.2672 143.335 35.4262 144.972 35.5899C145.008 32.3923 145.034 29.1947 145.052 25.9969C145.059 24.9088 145.069 23.8206 145.081 22.7325C145.099 21.1697 145.107 19.6072 145.114 18.0444C145.121 17.5567 145.128 17.069 145.136 16.5664C145.136 15.8867 145.136 15.8867 145.137 15.1933C145.14 14.7943 145.143 14.3954 145.146 13.9843C144.934 12.7237 144.501 12.302 143.527 11.506C143.686 11.0292 143.845 10.5523 144.009 10.061ZM130.974 28.4551C129.261 29.488 129.261 29.488 128.595 31.2548C128.745 33.0284 128.745 33.0284 129.077 34.6266C131.621 35.2045 131.621 35.2045 133.894 34.1449C134.07 32.7499 134.07 32.7499 133.984 31.1946C133.971 30.6668 133.958 30.1391 133.945 29.5953C133.92 28.9862 133.92 28.9862 133.894 28.3648C132.435 27.7079 132.435 27.7079 130.974 28.4551Z" fill="black"/>
<path d="M111.869 14.6363C110.92 15.9646 109.544 17.2455 108.833 17.4827C105.796 18.5738 105.322 19.4752 107.599 19.8547L108.975 20.0919L109.212 28.1093L109.449 36.0792L110.872 37.2178C112.818 38.7833 116.802 38.8307 119.032 37.2652C119.886 36.6959 120.598 35.842 120.598 35.3676C120.598 34.4188 120.408 34.3714 118.415 35.1304C117.182 35.5574 116.708 35.5574 116.091 35.0355C115.474 34.5137 115.379 33.3277 115.474 27.2553L115.616 20.0919L117.704 19.8547C118.89 19.7124 119.886 19.3803 119.981 19.0482C120.266 18.2892 118.463 17.4352 116.897 17.5776C115.664 17.7199 115.616 17.625 115.522 15.5851C115.474 14.3991 115.427 13.1656 115.427 12.8336C115.332 11.4578 113.482 12.4066 111.869 14.6363Z" fill="black"/>
<path d="M187.252 17.6724C186.208 18.0045 184.88 18.5264 184.358 18.811C183.456 19.2854 183.267 19.238 183.077 18.4315C182.745 17.198 181.701 17.2455 178.238 18.5738C176.293 19.3328 175.344 19.9496 175.202 20.6137C175.107 21.0881 175.202 21.3728 175.392 21.183C175.629 20.9933 176.056 21.0407 176.435 21.3253C177.289 22.0844 177.337 34.5137 176.483 35.6048C175.629 36.601 174.633 36.8857 173.399 36.4113C172.308 36.0318 172.308 35.9369 172.308 26.9707C172.308 19.0956 172.213 17.9096 171.549 17.625C170.648 17.2929 166.236 18.5738 164.955 19.6175C164.006 20.3291 164.006 20.3291 164.955 21.0407C165.809 21.7523 165.904 22.369 165.904 28.6785C165.856 35.3676 165.856 35.6048 164.765 36.4113C162.583 38.0717 163.816 38.3089 174.49 38.3089C185.449 38.3089 186.303 38.1191 184.215 36.0318C183.314 35.1304 183.219 34.5137 183.219 28.726C183.267 24.3141 183.409 22.2267 183.883 21.6574C184.215 21.183 184.525 20.7561 184.667 20.9458C184.217 20.9458 184.467 20.9458 184.667 20.9458C184.667 20.2342 188.438 20.5189 188.912 21.2779C189.197 21.6574 189.386 24.9308 189.386 28.4888C189.386 34.4662 189.292 35.1304 188.39 36.0318C186.54 37.8819 187.489 38.3563 192.423 38.214C194.889 38.1666 197.072 37.9768 197.261 37.7396C197.451 37.5498 197.167 36.9331 196.597 36.3164C195.696 35.3676 195.601 34.656 195.506 27.3502C195.459 22.9857 195.222 19.5226 195.032 19.6175C194.842 19.7598 194.415 19.4752 194.083 19.0482C193.371 18.2417 190.762 17.0083 189.766 17.0557C189.434 17.0557 188.295 17.3404 187.252 17.6724Z" fill="black"/>
<path d="M228.808 17.7199C220.317 20.424 219.131 33.47 226.958 37.455C229.425 38.7359 233.647 38.7833 235.924 37.6447C238.201 36.4587 241.095 33.1379 239.814 33.1379C239.625 33.1379 238.581 33.6123 237.395 34.1342C233.173 36.1741 228.951 34.4188 228.429 30.3864C228.192 28.6311 238.818 27.7087 239.814 27.5664C240.573 27.4715 236.905 26.9968 237 26.2852C237.142 25.4313 236.873 25.2852 235.924 25.2852C234.881 25.2852 228.381 25.8322 228.476 24.4564C228.571 23.6499 228.666 22.5588 228.713 22.0844C228.808 20.851 230.516 19.3803 231.797 19.3803C233.695 19.3803 234.454 20.5663 234.454 23.4602C234.454 26.0219 234.454 26.0219 232.983 26.0219C231.845 26.0219 231.56 26.2117 231.702 26.8284C231.845 27.54 232.509 27.6823 235.972 27.8246C240.621 27.967 241 27.6823 240.384 24.1243C239.482 18.8585 234.217 15.9646 228.808 17.7199Z" fill="black"/>
<path d="M253.62 17.6724C252.813 18.0519 251.722 18.811 251.2 19.3328L250.252 20.3765L249.967 18.9058C249.587 17.198 248.923 17.1031 245.081 18.4314C241.428 19.7123 241.096 20.0918 242.756 21.3727L244.084 22.4164L243.8 29.058C243.563 34.2764 243.373 35.842 242.756 36.2689C242.377 36.5536 242.044 37.1228 242.044 37.4549C242.044 38.4986 251.58 38.7358 252.434 37.6921C252.956 37.0754 252.861 36.8856 251.817 36.5061C250.204 35.8894 250.014 34.7508 250.204 28.2041C250.394 21.6099 250.679 21.0881 253.43 22.6536C255.755 23.9345 257.083 23.7922 258.316 22.1318C259.123 21.0406 259.17 20.6611 258.696 19.4751C258.364 18.7161 257.557 17.8622 256.941 17.5301C255.517 16.8659 255.423 16.9134 253.62 17.6724Z" fill="black"/>
<path d="M86.9634 18.0994C84.2119 18.7162 83.4528 19.5226 84.7812 20.5189C85.4928 21.0407 85.5876 22.0844 85.6825 27.967C85.73 32.2366 85.9672 35.1779 86.2992 35.7946C87.8173 38.4512 91.8972 39.2577 95.6449 37.6922C97.3528 36.9806 97.5425 36.9806 98.349 37.6922C99.0132 38.3089 99.9145 38.4038 102.287 38.2615C105.892 38.0243 106.366 37.7396 105.228 36.5062C104.516 35.6997 104.421 34.4663 104.421 26.7335C104.421 19.5701 104.279 17.8622 103.71 17.625C103.14 17.4353 100.247 17.9097 97.2579 18.7636C96.2142 19.0008 96.1193 20.1394 97.1156 20.5189C97.6849 20.7086 97.8272 21.9895 97.8272 27.6349V34.5137L95.977 35.083C94.6487 35.4625 93.9371 35.4625 93.178 35.083C92.1818 34.5611 92.1344 34.1342 92.0395 26.1168L91.8972 17.7199L90.7112 17.625C90.047 17.625 88.3866 17.8148 86.9634 18.0994Z" fill="black"/>
<defs>
<filter id="filter0_d_10_295" x="9.52197" y="13.5498" width="22.0226" height="21.9224" filterUnits="userSpaceOnUse" color-interpolation-filters="sRGB">
<feFlood flood-opacity="0" result="BackgroundImageFix"/>
<feColorMatrix in="SourceAlpha" type="matrix" values="0 0 0 0 0 0 0 0 0 0 0 0 0 0 0 0 0 0 127 0" result="hardAlpha"/>
<feOffset dy="4"/>
<feGaussianBlur stdDeviation="2"/>
<feComposite in2="hardAlpha" operator="out"/>
<feColorMatrix type="matrix" values="0 0 0 0 0 0 0 0 0 0 0 0 0 0 0 0 0 0 0.25 0"/>
<feBlend mode="normal" in2="BackgroundImageFix" result="effect1_dropShadow_10_295"/>
<feBlend mode="normal" in="SourceGraphic" in2="effect1_dropShadow_10_295" result="shape"/>
</filter>
</defs>
</svg>
